<?xml version="1.0" encoding="utf-8"?>
<!-- Generator: Adobe Illustrator 19.0.0, SVG Export Plug-In . SVG Version: 6.00 Build 0)  -->
<svg version="1.1" id="Layer_1" xmlns="http://www.w3.org/2000/svg" xmlns:xlink="http://www.w3.org/1999/xlink" x="0px" y="0px"
	 viewBox="0 0 519.4 415.6" style="enable-background:new 0 0 519.4 415.6;" xml:space="preserve">
<g id="icon">
	<path id="XMLID_31_" d="M285.5,415.6c-2,0-3.3,0-4.7,0c-88.9,0-177.8,0-266.7,0c-8.5,0-13.7-4.5-14-13c-0.3-9.4,0.2-18.9,0.3-28.4
		c0-4.8,5.5-10.2,10.1-10.4c6.1-0.3,12.1-0.6,18.2-0.7c15.1-0.1,30.1,0,45.2,0c1.1,0,2.3,0,3.7,0c0-8.1,0-15.8,0-23.6
		c0-90.2-0.1-180.4,0-270.5c0-11.2,4.4-20.5,14.8-25.6c5.1-2.5,10.8-3.7,16.3-5.1c21-5.5,42-10.8,62.9-16.2
		c27.9-7.2,55.7-14.6,83.7-21.5c7.3-1.8,14.4,0.3,20.3,5.2c7,5.8,10,13.1,10,22.3c-0.1,127.6-0.1,255.1-0.1,382.7
		C285.5,412.3,285.5,413.8,285.5,415.6z M233.1,209.9c0.2-9.2-1.7-16.2-6.8-21.8c-4.6-5.1-12.2-8.1-19.4-3.7c-5,3-7.9,7.4-10,12.8
		c-4,10.5-1.4,25,6.8,32.1c7.4,6.4,16.3,5.6,23-2.2C231.4,221.6,233.1,215.2,233.1,209.9z"/>
	<path id="XMLID_30_" d="M389.2,415.4c0-103.7,0-207,0-310.8c-25.9,0-51.6,0-77.6,0c0-17.6,0-34.9,0-52.5c1.1,0,2.2,0,3.3,0
		c29.4,0,58.8-0.2,88.2,0.1c14.9,0.1,25.9,7.6,33.3,20.3c3.9,6.7,5.3,14.2,5.3,21.9c0,79.6,0,159.3,0,238.9c0,8.7,0,17.5,0,26.2
		c0,1,0,2.1,0,3.5c1.4,0,2.5,0,3.6,0c19.7,0,39.4-0.1,59.1,0c6.1,0,11.3,2.2,13.7,8.4c0.7,1.9,1.1,4,1.1,6.1
		c0.1,7.9,0.2,15.8,0.1,23.7c-0.1,7.7-3.2,11.9-9.9,13.8c-0.9,0.3-1.8,0.4-2.7,0.4c-38.2,0-76.5,0-114.7,0
		C391.2,415.6,390.4,415.5,389.2,415.4z"/>
</g>
</svg>
