<?xml version="1.0" encoding="utf-8"?>
<!-- Generator: Adobe Illustrator 19.0.0, SVG Export Plug-In . SVG Version: 6.00 Build 0)  -->
<svg version="1.1" id="Layer_1" xmlns="http://www.w3.org/2000/svg" xmlns:xlink="http://www.w3.org/1999/xlink" x="0px" y="0px"
	 viewBox="244 -191.6 519.4 415.6" style="enable-background:new 244 -191.6 519.4 415.6;" xml:space="preserve">
<style type="text/css">
	.st0{fill:#676767;}
</style>
<g id="icon">
	<path class="st0" d="M519.6-185.8c-5.9-4.9-13-7-20.3-5.2c-28,6.9-55.8,14.3-83.7,21.5c-20.9,5.4-41.9,10.7-62.9,16.2
		c-5.5,1.4-11.2,2.6-16.3,5.1c-10.4,5.1-14.8,14.4-14.8,25.6c-0.1,90.1,0,180.3,0,270.5v23.6h-3.7c-15.1,0-30.1-0.1-45.2,0
		c-6.1,0.1-12.1,0.4-18.2,0.7c-4.6,0.2-10.1,5.6-10.1,10.4c-0.1,9.5-0.6,19-0.3,28.4c0.3,8.5,5.5,13,14,13h271.4v-4.8
		c0-127.6,0-255.1,0.1-382.7C529.6-172.7,526.6-180,519.6-185.8z M477.1,18.3c0,5.3-1.7,11.7-6.4,17.2c-6.7,7.8-15.6,8.6-23,2.2
		c-8.2-7.1-10.8-21.6-6.8-32.1c2.1-5.4,5-9.8,10-12.8c7.2-4.4,14.8-1.4,19.4,3.7C475.4,2.1,477.3,9.1,477.1,18.3z"/>
	<path class="st0" d="M763.3,209.6c-0.1,7.7-3.2,11.9-9.9,13.8c-0.9,0.3-1.8,0.4-2.7,0.4H636c-0.8,0.2-1.6,0.1-2.8,0V-87h-77.6
		v-52.5h3.3c29.4,0,58.8-0.2,88.2,0.1c14.9,0.1,25.9,7.6,33.3,20.3c3.9,6.7,5.3,14.2,5.3,21.9v268.6h3.6c19.7,0,39.4-0.1,59.1,0
		c6.1,0,11.3,2.2,13.7,8.4c0.7,1.9,1.1,4,1.1,6.1C763.3,193.8,763.4,201.7,763.3,209.6z"/>
</g>
</svg>
