<svg xmlns="http://www.w3.org/2000/svg" viewBox="0 0 519.4 415.6"><path d="M285.5 415.6H14.1c-8.5 0-13.7-4.5-14-13-.3-9.4.2-18.9.3-28.4 0-4.8 5.5-10.2 10.1-10.4 6.1-.3 12.1-.6 18.2-.7 15.1-.1 30.1 0 45.2 0h3.7v-23.6c0-90.2-.1-180.4 0-270.5 0-11.2 4.4-20.5 14.8-25.6 5.1-2.5 10.8-3.7 16.3-5.1 21-5.5 42-10.8 62.9-16.2 27.9-7.2 55.7-14.6 83.7-21.5 7.3-1.8 14.4.3 20.3 5.2 7 5.8 10 13.1 10 22.3-.1 127.6-.1 255.1-.1 382.7v4.8zm-52.4-205.7c.2-9.2-1.7-16.2-6.8-21.8-4.6-5.1-12.2-8.1-19.4-3.7-5 3-7.9 7.4-10 12.8-4 10.5-1.4 25 6.8 32.1 7.4 6.4 16.3 5.6 23-2.2 4.7-5.5 6.4-11.9 6.4-17.2zm156.1 205.5V104.6h-77.6V52.1h3.3c29.4 0 58.8-.2 88.2.1 14.9.1 25.9 7.6 33.3 20.3 3.9 6.7 5.3 14.2 5.3 21.9V363h3.6c19.7 0 39.4-.1 59.1 0 6.1 0 11.3 2.2 13.7 8.4.7 1.9 1.1 4 1.1 6.1.1 7.9.2 15.8.1 23.7-.1 7.7-3.2 11.9-9.9 13.8-.9.3-1.8.4-2.7.4H392c-.8.2-1.6.1-2.8 0z"/></svg>