<svg xmlns="http://www.w3.org/2000/svg" viewBox="244 -191.6 519.4 415.6"><path d="M519.6-185.8c-5.9-4.9-13-7-20.3-5.2-28 6.9-55.8 14.3-83.7 21.5-20.9 5.4-41.9 10.7-62.9 16.2-5.5 1.4-11.2 2.6-16.3 5.1-10.4 5.1-14.8 14.4-14.8 25.6-.1 90.1 0 180.3 0 270.5v23.6h-3.7c-15.1 0-30.1-.1-45.2 0-6.1.1-12.1.4-18.2.7-4.6.2-10.1 5.6-10.1 10.4-.1 9.5-.6 19-.3 28.4.3 8.5 5.5 13 14 13h271.4v-4.8c0-127.6 0-255.1.1-382.7 0-9.2-3-16.5-10-22.3zM477.1 18.3c0 5.3-1.7 11.7-6.4 17.2-6.7 7.8-15.6 8.6-23 2.2-8.2-7.1-10.8-21.6-6.8-32.1 2.1-5.4 5-9.8 10-12.8 7.2-4.4 14.8-1.4 19.4 3.7 5.1 5.6 7 12.6 6.8 21.8zm286.2 191.3c-.1 7.7-3.2 11.9-9.9 13.8-.9.3-1.8.4-2.7.4H636c-.8.2-1.6.1-2.8 0V-87h-77.6v-52.5h3.3c29.4 0 58.8-.2 88.2.1 14.9.1 25.9 7.6 33.3 20.3 3.9 6.7 5.3 14.2 5.3 21.9v268.6h3.6c19.7 0 39.4-.1 59.1 0 6.1 0 11.3 2.2 13.7 8.4.7 1.9 1.1 4 1.1 6.1.1 7.9.2 15.8.1 23.7z" fill="#676767"/></svg>